<svg xmlns="http://www.w3.org/2000/svg" viewBox="0 0 1200 630" width="1200" height="630">
  <rect width="1200" height="630" fill="#0C0E14"></rect>
  <g transform="translate(300,250)">
    <polyline points="47.56,-42.82 42.60,-47.76 37.12,-52.13 31.21,-55.88 24.91,-58.95 18.32,-61.32 11.51,-62.96 4.57,-63.84 -2.44,-63.95 -9.41,-63.30 -16.27,-61.90 -22.94,-59.75 -29.33,-56.89 -35.37,-53.34 -40.98,-49.16 -46.11,-44.39 -50.68,-39.08 -54.65,-33.31 -57.96,-27.14 -60.58,-20.64 -62.47,-13.90 -63.62,-6.99 -64.00,-0.00 -63.62,6.99 -62.47,13.90 -60.58,20.64 -57.96,27.14 -54.65,33.31 -50.68,39.08 -46.11,44.39 -40.98,49.16 -35.37,53.34 -29.33,56.89 -22.94,59.75 -16.27,61.90 -9.41,63.30 -2.44,63.95 4.57,63.84 11.51,62.96 18.32,61.32 24.91,58.95 31.21,55.88 37.12,52.13 42.60,47.76 47.56,42.82" fill="none" stroke="#2B5BFF" stroke-width="22" stroke-linecap="round" stroke-linejoin="round"></polyline><line x1="0" y1="0" x2="21.07" y2="-57.89" stroke="#2B5BFF" stroke-width="9.24" opacity=".55"></line><line x1="0" y1="0" x2="-21.07" y2="-57.89" stroke="#2B5BFF" stroke-width="9.24" opacity=".55"></line><line x1="0" y1="0" x2="-57.89" y2="-21.07" stroke="#2B5BFF" stroke-width="9.24" opacity=".55"></line><line x1="0" y1="0" x2="-57.89" y2="21.07" stroke="#2B5BFF" stroke-width="9.24" opacity=".55"></line><line x1="0" y1="0" x2="-21.07" y2="57.89" stroke="#2B5BFF" stroke-width="9.24" opacity=".55"></line><line x1="0" y1="0" x2="21.07" y2="57.89" stroke="#2B5BFF" stroke-width="9.24" opacity=".55"></line><circle cx="0" cy="0" r="16.50" fill="#2B5BFF"></circle>
    <polyline points="155.56,-42.82 150.60,-47.76 145.12,-52.13 139.21,-55.88 132.91,-58.95 126.32,-61.32 119.51,-62.96 112.57,-63.84 105.56,-63.95 98.59,-63.30 91.73,-61.90 85.06,-59.75 78.67,-56.89 72.63,-53.34 67.02,-49.16 61.89,-44.39 57.32,-39.08 53.35,-33.31 50.04,-27.14 47.42,-20.64 45.53,-13.90 44.38,-6.99 44.00,-0.00 44.38,6.99 45.53,13.90 47.42,20.64 50.04,27.14 53.35,33.31 57.32,39.08 61.89,44.39 67.02,49.16 72.63,53.34 78.67,56.89 85.06,59.75 91.73,61.90 98.59,63.30 105.56,63.95 112.57,63.84 119.51,62.96 126.32,61.32 132.91,58.95 139.21,55.88 145.12,52.13 150.60,47.76 155.56,42.82" fill="none" stroke="#FF2E86" stroke-width="22" stroke-linecap="round" stroke-linejoin="round"></polyline><line x1="108" y1="0" x2="129.07" y2="-57.89" stroke="#FF2E86" stroke-width="9.24" opacity=".55"></line><line x1="108" y1="0" x2="86.93" y2="-57.89" stroke="#FF2E86" stroke-width="9.24" opacity=".55"></line><line x1="108" y1="0" x2="50.11" y2="-21.07" stroke="#FF2E86" stroke-width="9.24" opacity=".55"></line><line x1="108" y1="0" x2="50.11" y2="21.07" stroke="#FF2E86" stroke-width="9.24" opacity=".55"></line><line x1="108" y1="0" x2="86.93" y2="57.89" stroke="#FF2E86" stroke-width="9.24" opacity=".55"></line><line x1="108" y1="0" x2="129.07" y2="57.89" stroke="#FF2E86" stroke-width="9.24" opacity=".55"></line><circle cx="108" cy="0" r="16.50" fill="#FF2E86"></circle>
  </g>
  <text x="300" y="410" font-family="Bricolage Grotesque, sans-serif" font-weight="800" font-size="86" letter-spacing="-3" fill="#FFFFFF">bockwurst<tspan fill="#2B5BFF">.</tspan><tspan fill="#2B5BFF">cc</tspan></text>
  <text x="304" y="452" font-family="JetBrains Mono, monospace" font-size="24" letter-spacing="6" fill="#8b93a5">STEFANS RENNRAD WELT</text>
</svg>