<svg xmlns="http://www.w3.org/2000/svg" viewBox="0 0 64 64" width="64" height="64"><polyline points="30.90,22.10 29.67,21.01 28.31,20.06 26.86,19.29 25.33,18.69 23.73,18.27 22.10,18.04 20.45,18.01 18.81,18.17 17.20,18.53 15.64,19.07 14.16,19.79 12.77,20.67 11.50,21.72 10.35,22.91 9.36,24.22 8.53,25.64 7.87,27.15 7.39,28.73 7.10,30.35 7.00,32.00 7.10,33.65 7.39,35.27 7.87,36.85 8.53,38.36 9.36,39.78 10.35,41.09 11.50,42.28 12.77,43.33 14.16,44.21 15.64,44.93 17.20,45.47 18.81,45.83 20.45,45.99 22.10,45.96 23.73,45.73 25.33,45.31 26.86,44.71 28.31,43.94 29.67,42.99 30.90,41.90" fill="none" stroke="#2B5BFF" stroke-width="5.5" stroke-linecap="round"></polyline><circle cx="21" cy="32" r="3.4" fill="#2B5BFF"></circle><polyline points="52.90,22.10 51.67,21.01 50.31,20.06 48.86,19.29 47.33,18.69 45.73,18.27 44.10,18.04 42.45,18.01 40.81,18.17 39.20,18.53 37.64,19.07 36.16,19.79 34.77,20.67 33.50,21.72 32.35,22.91 31.36,24.22 30.53,25.64 29.87,27.15 29.39,28.73 29.10,30.35 29.00,32.00 29.10,33.65 29.39,35.27 29.87,36.85 30.53,38.36 31.36,39.78 32.35,41.09 33.50,42.28 34.77,43.33 36.16,44.21 37.64,44.93 39.20,45.47 40.81,45.83 42.45,45.99 44.10,45.96 45.73,45.73 47.33,45.31 48.86,44.71 50.31,43.94 51.67,42.99 52.90,41.90" fill="none" stroke="#FF2E86" stroke-width="5.5" stroke-linecap="round"></polyline><circle cx="43" cy="32" r="3.4" fill="#FF2E86"></circle></svg>