<svg xmlns="http://www.w3.org/2000/svg" viewBox="0 0 64 64" width="64" height="64">
  <rect width="64" height="64" rx="14" fill="#0C0E14"></rect>
  <polyline points="31.92,24.97 30.89,23.96 29.75,23.08 28.50,22.34 27.18,21.75 25.80,21.33 24.38,21.08 22.94,21.00 21.50,21.09 20.08,21.36 18.70,21.80 17.38,22.39 16.15,23.15 15.02,24.04 14.00,25.06 13.11,26.20 12.37,27.44 11.77,28.76 11.35,30.14 11.09,31.56 11.00,33.00 11.09,34.44 11.35,35.86 11.77,37.24 12.37,38.56 13.11,39.80 14.00,40.94 15.02,41.96 16.15,42.85 17.38,43.61 18.70,44.20 20.08,44.64 21.50,44.91 22.94,45.00 24.38,44.92 25.80,44.67 27.18,44.25 28.50,43.66 29.75,42.92 30.89,42.04 31.92,41.03" fill="none" stroke="#2B5BFF" stroke-width="4" stroke-linecap="round" stroke-linejoin="round"></polyline><line x1="23" y1="33" x2="26.56" y2="23.23" stroke="#2B5BFF" stroke-width="1.5" opacity="0.55"></line><line x1="23" y1="33" x2="19.44" y2="23.23" stroke="#2B5BFF" stroke-width="1.5" opacity="0.55"></line><line x1="23" y1="33" x2="13.23" y2="29.44" stroke="#2B5BFF" stroke-width="1.5" opacity="0.55"></line><line x1="23" y1="33" x2="13.23" y2="36.56" stroke="#2B5BFF" stroke-width="1.5" opacity="0.55"></line><line x1="23" y1="33" x2="19.44" y2="42.77" stroke="#2B5BFF" stroke-width="1.5" opacity="0.55"></line><line x1="23" y1="33" x2="26.56" y2="42.77" stroke="#2B5BFF" stroke-width="1.5" opacity="0.55"></line><circle cx="23" cy="33" r="2.6" fill="#2B5BFF"></circle>
  <polyline points="51.92,24.97 50.89,23.96 49.75,23.08 48.50,22.34 47.18,21.75 45.80,21.33 44.38,21.08 42.94,21.00 41.50,21.09 40.08,21.36 38.70,21.80 37.38,22.39 36.15,23.15 35.02,24.04 34.00,25.06 33.11,26.20 32.37,27.44 31.77,28.76 31.35,30.14 31.09,31.56 31.00,33.00 31.09,34.44 31.35,35.86 31.77,37.24 32.37,38.56 33.11,39.80 34.00,40.94 35.02,41.96 36.15,42.85 37.38,43.61 38.70,44.20 40.08,44.64 41.50,44.91 42.94,45.00 44.38,44.92 45.80,44.67 47.18,44.25 48.50,43.66 49.75,42.92 50.89,42.04 51.92,41.03" fill="none" stroke="#FF2E86" stroke-width="4" stroke-linecap="round" stroke-linejoin="round"></polyline><line x1="43" y1="33" x2="46.56" y2="23.23" stroke="#FF2E86" stroke-width="1.5" opacity="0.55"></line><line x1="43" y1="33" x2="39.44" y2="23.23" stroke="#FF2E86" stroke-width="1.5" opacity="0.55"></line><line x1="43" y1="33" x2="33.23" y2="29.44" stroke="#FF2E86" stroke-width="1.5" opacity="0.55"></line><line x1="43" y1="33" x2="33.23" y2="36.56" stroke="#FF2E86" stroke-width="1.5" opacity="0.55"></line><line x1="43" y1="33" x2="39.44" y2="42.77" stroke="#FF2E86" stroke-width="1.5" opacity="0.55"></line><line x1="43" y1="33" x2="46.56" y2="42.77" stroke="#FF2E86" stroke-width="1.5" opacity="0.55"></line><circle cx="43" cy="33" r="2.6" fill="#FF2E86"></circle>
</svg>